<svg width="59" height="58" viewBox="0 0 59 58" fill="none" xmlns="http://www.w3.org/2000/svg">
<g filter="url(#filter0_dd_1_2068)">
<circle cx="29.5" cy="24.9999" r="24" fill="#F5F5F5" stroke="url(#paint0_linear_1_2068)" stroke-width="2"/>
<path fill-rule="evenodd" clip-rule="evenodd" d="M35.7311 15.8315C34.0442 14.5838 32.038 13.9185 29.9842 13.9253C24.4066 13.9253 19.8688 18.7578 19.8688 24.6979C19.8662 26.1227 20.1309 27.5333 20.647 28.8476C20.7085 29.0005 20.6884 29.1768 20.5941 29.3095C20.4998 29.4419 20.3459 29.5106 20.191 29.4889C20.0363 29.4672 19.9042 29.3585 19.8453 29.2047C19.2846 27.7773 18.9974 26.2451 19 24.6979C19 18.2477 23.9273 13 29.9842 13C32.2236 12.9925 34.4107 13.721 36.2472 15.0862L37.1781 13.7407C37.2813 13.5914 37.4581 13.5223 37.6275 13.5649C37.797 13.6072 37.9262 13.7533 37.9557 13.9361L38.5429 17.5439C38.563 17.6681 38.5346 17.7959 38.4643 17.8974C38.394 17.9988 38.2878 18.0654 38.1705 18.0817L34.761 18.5531C34.7423 18.5557 34.7236 18.557 34.705 18.557C34.5411 18.557 34.3913 18.4589 34.3174 18.3029C34.2437 18.1473 34.2582 17.9606 34.3554 17.8199L35.7311 15.8315ZM22.3726 35.6822C22.2034 35.6396 22.0742 35.4935 22.0444 35.3107L21.4568 31.7032C21.4366 31.5787 21.465 31.4509 21.5353 31.3495C21.6056 31.248 21.7118 31.1814 21.8291 31.1651L25.2389 30.6937C25.4112 30.67 25.5807 30.758 25.6689 30.9176C25.7572 31.0774 25.7477 31.2777 25.6444 31.4269L24.2688 33.4153C25.9557 34.663 27.9619 35.3283 30.0156 35.3216C35.5933 35.3216 40.131 30.489 40.131 24.5489C40.1337 23.1244 39.8692 21.7135 39.3529 20.3992C39.2913 20.2464 39.3117 20.07 39.406 19.9373C39.5 19.8049 39.654 19.7365 39.8089 19.7582C39.9635 19.7796 40.0956 19.8883 40.1545 20.0422C40.7152 21.4695 41.0027 23.0017 40.9998 24.5489C40.9998 30.9991 36.0726 36.2468 30.0156 36.2468C27.7762 36.2541 25.5894 35.5258 23.7531 34.1606L22.8223 35.5062C22.719 35.6554 22.542 35.7246 22.3726 35.6822Z" fill="url(#paint1_linear_1_2068)"/>
<path d="M30.53 28.1464C29.3834 28.1464 28.48 27.7931 27.82 27.0864L28.47 26.1864C29.0434 26.7998 29.7467 27.1064 30.58 27.1064C31.0267 27.1064 31.36 27.0164 31.58 26.8364C31.8067 26.6564 31.92 26.4431 31.92 26.1964C31.92 25.9431 31.7867 25.7431 31.52 25.5964C31.2534 25.4431 30.93 25.3231 30.55 25.2364C30.17 25.1498 29.7867 25.0464 29.4 24.9264C29.02 24.8064 28.6967 24.6031 28.43 24.3164C28.1634 24.0298 28.03 23.6598 28.03 23.2064C28.03 22.6464 28.2534 22.1831 28.7 21.8164C29.1534 21.4431 29.74 21.2564 30.46 21.2564C31.4867 21.2564 32.32 21.5664 32.96 22.1864L32.29 23.0564C31.7834 22.5498 31.14 22.2964 30.36 22.2964C30.0134 22.2964 29.7367 22.3731 29.53 22.5264C29.33 22.6731 29.23 22.8731 29.23 23.1264C29.23 23.2931 29.3 23.4331 29.44 23.5464C29.5867 23.6598 29.7734 23.7531 30 23.8264C30.2267 23.8931 30.4767 23.9598 30.75 24.0264C31.03 24.0931 31.3067 24.1764 31.58 24.2764C31.86 24.3698 32.1134 24.4864 32.34 24.6264C32.5667 24.7664 32.75 24.9598 32.89 25.2064C33.0367 25.4531 33.11 25.7464 33.11 26.0864C33.11 26.6864 32.8934 27.1798 32.46 27.5664C32.0267 27.9531 31.3834 28.1464 30.53 28.1464Z" fill="url(#paint2_linear_1_2068)"/>
</g>
<defs>
<filter id="filter0_dd_1_2068" x="0.5" y="-6.10352e-05" width="58" height="58" filterUnits="userSpaceOnUse" color-interpolation-filters="sRGB">
<feFlood flood-opacity="0" result="BackgroundImageFix"/>
<feColorMatrix in="SourceAlpha" type="matrix" values="0 0 0 0 0 0 0 0 0 0 0 0 0 0 0 0 0 0 127 0" result="hardAlpha"/>
<feOffset dy="4"/>
<feGaussianBlur stdDeviation="2"/>
<feComposite in2="hardAlpha" operator="out"/>
<feColorMatrix type="matrix" values="0 0 0 0 0 0 0 0 0 0 0 0 0 0 0 0 0 0 0.25 0"/>
<feBlend mode="normal" in2="BackgroundImageFix" result="effect1_dropShadow_1_2068"/>
<feColorMatrix in="SourceAlpha" type="matrix" values="0 0 0 0 0 0 0 0 0 0 0 0 0 0 0 0 0 0 127 0" result="hardAlpha"/>
<feOffset dy="4"/>
<feGaussianBlur stdDeviation="2"/>
<feComposite in2="hardAlpha" operator="out"/>
<feColorMatrix type="matrix" values="0 0 0 0 0 0 0 0 0 0 0 0 0 0 0 0 0 0 0.25 0"/>
<feBlend mode="normal" in2="effect1_dropShadow_1_2068" result="effect2_dropShadow_1_2068"/>
<feBlend mode="normal" in="SourceGraphic" in2="effect2_dropShadow_1_2068" result="shape"/>
</filter>
<linearGradient id="paint0_linear_1_2068" x1="29.5" y1="-6.10352e-05" x2="29.4997" y2="49.9999" gradientUnits="userSpaceOnUse">
<stop stop-color="#927628"/>
<stop offset="1" stop-color="#FFCE00"/>
</linearGradient>
<linearGradient id="paint1_linear_1_2068" x1="29.9999" y1="12.9999" x2="29.9998" y2="36.2469" gradientUnits="userSpaceOnUse">
<stop stop-color="#927628"/>
<stop offset="1" stop-color="#FFCE00"/>
</linearGradient>
<linearGradient id="paint2_linear_1_2068" x1="30.0348" y1="19.0264" x2="30.0347" y2="29.4125" gradientUnits="userSpaceOnUse">
<stop stop-color="#927628"/>
<stop offset="1" stop-color="#FFCE00"/>
</linearGradient>
</defs>
</svg>
